<svg width="20" height="21" viewBox="0 0 20 21" fill="none" xmlns="http://www.w3.org/2000/svg">
<path d="M10 0.5C8.02219 0.5 6.08879 1.08649 4.4443 2.1853C2.79981 3.28412 1.51809 4.8459 0.761209 6.67316C0.00433284 8.50042 -0.1937 10.5111 0.192152 12.4509C0.578004 14.3907 1.53041 16.1725 2.92894 17.5711C4.32746 18.9696 6.10929 19.922 8.0491 20.3078C9.98891 20.6937 11.9996 20.4957 13.8268 19.7388C15.6541 18.9819 17.2159 17.7002 18.3147 16.0557C19.4135 14.4112 20 12.4778 20 10.5C19.9972 7.84869 18.9427 5.30678 17.068 3.43202C15.1932 1.55727 12.6513 0.5028 10 0.5ZM14.3904 8.73654L9.00577 14.1212C8.93433 14.1927 8.84949 14.2494 8.75611 14.2881C8.66273 14.3268 8.56263 14.3468 8.46154 14.3468C8.36045 14.3468 8.26035 14.3268 8.16697 14.2881C8.07359 14.2494 7.98875 14.1927 7.91731 14.1212L5.60962 11.8135C5.46528 11.6691 5.38419 11.4734 5.38419 11.2692C5.38419 11.0651 5.46528 10.8693 5.60962 10.725C5.75396 10.5807 5.94972 10.4996 6.15385 10.4996C6.35798 10.4996 6.55374 10.5807 6.69808 10.725L8.46154 12.4894L13.3019 7.64808C13.3734 7.57661 13.4582 7.51991 13.5516 7.48123C13.645 7.44256 13.7451 7.42265 13.8462 7.42265C13.9472 7.42265 14.0473 7.44256 14.1407 7.48123C14.2341 7.51991 14.3189 7.57661 14.3904 7.64808C14.4619 7.71954 14.5185 7.80439 14.5572 7.89777C14.5959 7.99115 14.6158 8.09123 14.6158 8.19231C14.6158 8.29338 14.5959 8.39346 14.5572 8.48684C14.5185 8.58022 14.4619 8.66507 14.3904 8.73654Z" fill="#34AB7D"/>
</svg>