<svg width="26" height="25" viewBox="0 0 26 25" fill="none" xmlns="http://www.w3.org/2000/svg">
<path d="M11.5893 10.7143H15.1607V14.2857H11.5893V10.7143ZM25.875 15.1786C25.875 15.4154 25.7809 15.6425 25.6135 15.8099C25.446 15.9774 25.2189 16.0714 24.9821 16.0714H23.1964V20.5357C23.1964 21.0093 23.0083 21.4635 22.6734 21.7984C22.3385 22.1333 21.8843 22.3214 21.4107 22.3214H16.9464V24.1071C16.9464 24.3439 16.8524 24.571 16.6849 24.7385C16.5175 24.9059 16.2904 25 16.0536 25C15.8168 25 15.5897 24.9059 15.4222 24.7385C15.2548 24.571 15.1607 24.3439 15.1607 24.1071V22.3214H11.5893V24.1071C11.5893 24.3439 11.4952 24.571 11.3278 24.7385C11.1603 24.9059 10.9332 25 10.6964 25C10.4596 25 10.2325 24.9059 10.0651 24.7385C9.89764 24.571 9.80357 24.3439 9.80357 24.1071V22.3214H5.33929C4.86568 22.3214 4.41148 22.1333 4.07659 21.7984C3.74171 21.4635 3.55357 21.0093 3.55357 20.5357V16.0714H1.76786C1.53106 16.0714 1.30395 15.9774 1.13651 15.8099C0.969069 15.6425 0.875 15.4154 0.875 15.1786C0.875 14.9418 0.969069 14.7147 1.13651 14.5472C1.30395 14.3798 1.53106 14.2857 1.76786 14.2857H3.55357V10.7143H1.76786C1.53106 10.7143 1.30395 10.6202 1.13651 10.4528C0.969069 10.2853 0.875 10.0582 0.875 9.82143C0.875 9.58463 0.969069 9.35753 1.13651 9.19008C1.30395 9.02264 1.53106 8.92857 1.76786 8.92857H3.55357V4.46429C3.55357 3.99068 3.74171 3.53648 4.07659 3.20159C4.41148 2.86671 4.86568 2.67857 5.33929 2.67857H9.80357V0.892857C9.80357 0.656057 9.89764 0.428955 10.0651 0.261512C10.2325 0.0940686 10.4596 0 10.6964 0C10.9332 0 11.1603 0.0940686 11.3278 0.261512C11.4952 0.428955 11.5893 0.656057 11.5893 0.892857V2.67857H15.1607V0.892857C15.1607 0.656057 15.2548 0.428955 15.4222 0.261512C15.5897 0.0940686 15.8168 0 16.0536 0C16.2904 0 16.5175 0.0940686 16.6849 0.261512C16.8524 0.428955 16.9464 0.656057 16.9464 0.892857V2.67857H21.4107C21.8843 2.67857 22.3385 2.86671 22.6734 3.20159C23.0083 3.53648 23.1964 3.99068 23.1964 4.46429V8.92857H24.9821C25.2189 8.92857 25.446 9.02264 25.6135 9.19008C25.7809 9.35753 25.875 9.58463 25.875 9.82143C25.875 10.0582 25.7809 10.2853 25.6135 10.4528C25.446 10.6202 25.2189 10.7143 24.9821 10.7143H23.1964V14.2857H24.9821C25.2189 14.2857 25.446 14.3798 25.6135 14.5472C25.7809 14.7147 25.875 14.9418 25.875 15.1786ZM16.9464 9.82143C16.9464 9.58463 16.8524 9.35753 16.6849 9.19008C16.5175 9.02264 16.2904 8.92857 16.0536 8.92857H10.6964C10.4596 8.92857 10.2325 9.02264 10.0651 9.19008C9.89764 9.35753 9.80357 9.58463 9.80357 9.82143V15.1786C9.80357 15.4154 9.89764 15.6425 10.0651 15.8099C10.2325 15.9774 10.4596 16.0714 10.6964 16.0714H16.0536C16.2904 16.0714 16.5175 15.9774 16.6849 15.8099C16.8524 15.6425 16.9464 15.4154 16.9464 15.1786V9.82143Z" fill="white"/>
</svg>