<svg width="20" height="20" viewBox="0 0 20 20" fill="none" xmlns="http://www.w3.org/2000/svg">
<path d="M18.9344 17.9407C19.0035 18.005 19.0589 18.0827 19.0973 18.1689C19.1358 18.2552 19.1564 18.3483 19.1581 18.4427C19.1598 18.5371 19.1424 18.6309 19.107 18.7184C19.0717 18.806 19.019 18.8855 18.9523 18.9523C18.8855 19.019 18.806 19.0717 18.7184 19.107C18.6309 19.1424 18.5371 19.1598 18.4427 19.1581C18.3483 19.1564 18.2552 19.1358 18.1689 19.0973C18.0827 19.0589 18.005 19.0035 17.9407 18.9344L10 10.995L2.05941 18.9344C1.92613 19.0586 1.74983 19.1262 1.56767 19.123C1.38552 19.1198 1.21172 19.046 1.08289 18.9172C0.954069 18.7884 0.880277 18.6146 0.877063 18.4324C0.873849 18.2502 0.941464 18.074 1.06566 17.9407L9.00512 10L1.06566 2.05941C0.941464 1.92613 0.873849 1.74983 0.877063 1.56767C0.880277 1.38552 0.954069 1.21172 1.08289 1.08289C1.21172 0.954069 1.38552 0.880277 1.56767 0.877063C1.74983 0.873849 1.92613 0.941464 2.05941 1.06566L10 9.00512L17.9407 1.06566C18.074 0.941464 18.2502 0.873849 18.4324 0.877063C18.6146 0.880277 18.7884 0.954069 18.9172 1.08289C19.046 1.21172 19.1198 1.38552 19.123 1.56767C19.1262 1.74983 19.0586 1.92613 18.9344 2.05941L10.995 10L18.9344 17.9407Z" fill="#959595"/>
</svg>