<svg width="15" height="14" viewBox="0 0 15 14" fill="none" xmlns="http://www.w3.org/2000/svg">
<path d="M14.1904 6.70184L11.4063 9.00809L12.2403 12.4417C12.2844 12.6212 12.2718 12.809 12.2041 12.9818C12.1363 13.1545 12.0164 13.3045 11.8594 13.4129C11.7024 13.5213 11.5151 13.5834 11.3211 13.5914C11.1271 13.5993 10.9349 13.5528 10.7686 13.4577L7.61342 11.6413L4.46506 13.4577C4.29873 13.5528 4.10655 13.5993 3.91253 13.5914C3.71852 13.5834 3.53128 13.5213 3.37424 13.4129C3.21719 13.3045 3.0973 13.1545 3.02955 12.9818C2.96181 12.809 2.94922 12.6212 2.99335 12.4417L3.82612 9.0116L1.04136 6.70184C0.894072 6.58126 0.787567 6.4221 0.735201 6.2443C0.682835 6.06651 0.686941 5.878 0.747002 5.70241C0.807063 5.52682 0.920406 5.37197 1.07282 5.25728C1.22523 5.14258 1.40993 5.07315 1.60375 5.0577L5.27437 4.75594L6.70719 1.51219C6.78201 1.34198 6.90822 1.19659 7.06992 1.09433C7.23162 0.992067 7.42159 0.9375 7.61589 0.9375C7.8102 0.9375 8.00017 0.992067 8.16187 1.09433C8.32357 1.19659 8.44978 1.34198 8.5246 1.51219L9.96174 4.75594L13.6311 5.0577C13.8249 5.07315 14.0096 5.14258 14.1621 5.25728C14.3145 5.37197 14.4278 5.52682 14.4879 5.70241C14.5479 5.878 14.552 6.06651 14.4997 6.2443C14.4473 6.4221 14.3408 6.58126 14.1935 6.70184H14.1904Z" fill="#008066"/>
</svg>
